<mxfile host="app.diagrams.net" agent="Mozilla/5.0 (Windows NT 10.0; Win64; x64) AppleWebKit/537.36 (KHTML, like Gecko) Chrome/127.0.0.0 Safari/537.36 OPR/113.0.0.0 (Edition std-1)" version="24.7.17">
  <diagram name="PÃ¡gina-1" id="4mm__A-xUblQpaFVOvJG">
    <mxGraphModel dx="1121" dy="1768" grid="1" gridSize="10" guides="1" tooltips="1" connect="1" arrows="1" fold="1" page="1" pageScale="1" pageWidth="827" pageHeight="1169" math="0" shadow="0">
      <root>
        <mxCell id="0" />
        <mxCell id="1" parent="0" />
        <mxCell id="1UV5pbVjWlEWzFO5Yw3B-4" value="" style="group" vertex="1" connectable="0" parent="1">
          <mxGeometry x="354" y="50" width="120" height="60" as="geometry" />
        </mxCell>
        <mxCell id="1UV5pbVjWlEWzFO5Yw3B-1" value="" style="rounded=0;whiteSpace=wrap;html=1;" vertex="1" parent="1UV5pbVjWlEWzFO5Yw3B-4">
          <mxGeometry width="120" height="60" as="geometry" />
        </mxCell>
        <mxCell id="1UV5pbVjWlEWzFO5Yw3B-3" value="Produtos" style="text;html=1;align=center;verticalAlign=middle;whiteSpace=wrap;rounded=0;" vertex="1" parent="1UV5pbVjWlEWzFO5Yw3B-4">
          <mxGeometry width="120" height="60" as="geometry" />
        </mxCell>
        <mxCell id="1UV5pbVjWlEWzFO5Yw3B-6" value="" style="group" vertex="1" connectable="0" parent="1">
          <mxGeometry x="10" y="50" width="120" height="60" as="geometry" />
        </mxCell>
        <mxCell id="1UV5pbVjWlEWzFO5Yw3B-7" value="" style="rounded=0;whiteSpace=wrap;html=1;" vertex="1" parent="1UV5pbVjWlEWzFO5Yw3B-6">
          <mxGeometry width="120" height="60" as="geometry" />
        </mxCell>
        <mxCell id="1UV5pbVjWlEWzFO5Yw3B-8" value="Categorias" style="text;html=1;align=center;verticalAlign=middle;whiteSpace=wrap;rounded=0;" vertex="1" parent="1UV5pbVjWlEWzFO5Yw3B-6">
          <mxGeometry width="120" height="60" as="geometry" />
        </mxCell>
        <mxCell id="1UV5pbVjWlEWzFO5Yw3B-13" value="" style="group" vertex="1" connectable="0" parent="1">
          <mxGeometry x="10" y="110" width="120" height="80" as="geometry" />
        </mxCell>
        <mxCell id="1UV5pbVjWlEWzFO5Yw3B-9" value="" style="ellipse;whiteSpace=wrap;html=1;" vertex="1" parent="1UV5pbVjWlEWzFO5Yw3B-13">
          <mxGeometry width="120" height="80" as="geometry" />
        </mxCell>
        <mxCell id="1UV5pbVjWlEWzFO5Yw3B-12" value="codCategorias" style="text;html=1;align=center;verticalAlign=middle;whiteSpace=wrap;rounded=0;" vertex="1" parent="1UV5pbVjWlEWzFO5Yw3B-13">
          <mxGeometry y="10" width="120" height="60" as="geometry" />
        </mxCell>
        <mxCell id="1UV5pbVjWlEWzFO5Yw3B-14" value="" style="group" vertex="1" connectable="0" parent="1">
          <mxGeometry x="10" y="190" width="120" height="80" as="geometry" />
        </mxCell>
        <mxCell id="1UV5pbVjWlEWzFO5Yw3B-15" value="" style="ellipse;whiteSpace=wrap;html=1;" vertex="1" parent="1UV5pbVjWlEWzFO5Yw3B-14">
          <mxGeometry width="120" height="80" as="geometry" />
        </mxCell>
        <mxCell id="1UV5pbVjWlEWzFO5Yw3B-16" value="nome" style="text;html=1;align=center;verticalAlign=middle;whiteSpace=wrap;rounded=0;" vertex="1" parent="1UV5pbVjWlEWzFO5Yw3B-14">
          <mxGeometry y="10" width="120" height="60" as="geometry" />
        </mxCell>
        <mxCell id="1UV5pbVjWlEWzFO5Yw3B-17" value="" style="group" vertex="1" connectable="0" parent="1">
          <mxGeometry x="354" y="110" width="120" height="80" as="geometry" />
        </mxCell>
        <mxCell id="1UV5pbVjWlEWzFO5Yw3B-18" value="" style="ellipse;whiteSpace=wrap;html=1;" vertex="1" parent="1UV5pbVjWlEWzFO5Yw3B-17">
          <mxGeometry width="120" height="80" as="geometry" />
        </mxCell>
        <mxCell id="1UV5pbVjWlEWzFO5Yw3B-19" value="codProduto" style="text;html=1;align=center;verticalAlign=middle;whiteSpace=wrap;rounded=0;" vertex="1" parent="1UV5pbVjWlEWzFO5Yw3B-17">
          <mxGeometry y="10" width="120" height="60" as="geometry" />
        </mxCell>
        <mxCell id="1UV5pbVjWlEWzFO5Yw3B-20" value="" style="group" vertex="1" connectable="0" parent="1">
          <mxGeometry x="354" y="190" width="120" height="80" as="geometry" />
        </mxCell>
        <mxCell id="1UV5pbVjWlEWzFO5Yw3B-21" value="" style="ellipse;whiteSpace=wrap;html=1;" vertex="1" parent="1UV5pbVjWlEWzFO5Yw3B-20">
          <mxGeometry width="120" height="80" as="geometry" />
        </mxCell>
        <mxCell id="1UV5pbVjWlEWzFO5Yw3B-22" value="nome" style="text;html=1;align=center;verticalAlign=middle;whiteSpace=wrap;rounded=0;" vertex="1" parent="1UV5pbVjWlEWzFO5Yw3B-20">
          <mxGeometry y="10" width="120" height="60" as="geometry" />
        </mxCell>
        <mxCell id="1UV5pbVjWlEWzFO5Yw3B-23" value="" style="group" vertex="1" connectable="0" parent="1">
          <mxGeometry x="354" y="270" width="120" height="80" as="geometry" />
        </mxCell>
        <mxCell id="1UV5pbVjWlEWzFO5Yw3B-24" value="" style="ellipse;whiteSpace=wrap;html=1;" vertex="1" parent="1UV5pbVjWlEWzFO5Yw3B-23">
          <mxGeometry width="120" height="80" as="geometry" />
        </mxCell>
        <mxCell id="1UV5pbVjWlEWzFO5Yw3B-25" value="codCategoria" style="text;html=1;align=center;verticalAlign=middle;whiteSpace=wrap;rounded=0;" vertex="1" parent="1UV5pbVjWlEWzFO5Yw3B-23">
          <mxGeometry y="10" width="120" height="60" as="geometry" />
        </mxCell>
        <mxCell id="1UV5pbVjWlEWzFO5Yw3B-26" value="" style="endArrow=none;html=1;rounded=0;exitX=1;exitY=0.5;exitDx=0;exitDy=0;entryX=0;entryY=0.5;entryDx=0;entryDy=0;" edge="1" parent="1" source="1UV5pbVjWlEWzFO5Yw3B-2" target="1UV5pbVjWlEWzFO5Yw3B-3">
          <mxGeometry width="50" height="50" relative="1" as="geometry">
            <mxPoint x="400" y="180" as="sourcePoint" />
            <mxPoint x="450" y="130" as="targetPoint" />
          </mxGeometry>
        </mxCell>
        <mxCell id="1UV5pbVjWlEWzFO5Yw3B-27" value="" style="endArrow=none;html=1;rounded=0;" edge="1" parent="1">
          <mxGeometry width="50" height="50" relative="1" as="geometry">
            <mxPoint x="130" y="80" as="sourcePoint" />
            <mxPoint x="200" y="80" as="targetPoint" />
          </mxGeometry>
        </mxCell>
        <mxCell id="1UV5pbVjWlEWzFO5Yw3B-28" value="" style="rhombus;whiteSpace=wrap;html=1;" vertex="1" parent="1">
          <mxGeometry x="600" y="40" width="80" height="80" as="geometry" />
        </mxCell>
        <mxCell id="1UV5pbVjWlEWzFO5Yw3B-29" value="" style="endArrow=none;html=1;rounded=0;exitX=0.5;exitY=0;exitDx=0;exitDy=0;entryX=1;entryY=0.5;entryDx=0;entryDy=0;" edge="1" parent="1" source="1UV5pbVjWlEWzFO5Yw3B-28" target="1UV5pbVjWlEWzFO5Yw3B-3">
          <mxGeometry width="50" height="50" relative="1" as="geometry">
            <mxPoint x="300" y="220" as="sourcePoint" />
            <mxPoint x="350" y="170" as="targetPoint" />
            <Array as="points">
              <mxPoint x="600" y="80" />
            </Array>
          </mxGeometry>
        </mxCell>
        <mxCell id="1UV5pbVjWlEWzFO5Yw3B-30" value="" style="group" vertex="1" connectable="0" parent="1">
          <mxGeometry x="354" y="350" width="120" height="80" as="geometry" />
        </mxCell>
        <mxCell id="1UV5pbVjWlEWzFO5Yw3B-31" value="" style="ellipse;whiteSpace=wrap;html=1;" vertex="1" parent="1UV5pbVjWlEWzFO5Yw3B-30">
          <mxGeometry width="120" height="80" as="geometry" />
        </mxCell>
        <mxCell id="1UV5pbVjWlEWzFO5Yw3B-32" value="validade" style="text;html=1;align=center;verticalAlign=middle;whiteSpace=wrap;rounded=0;" vertex="1" parent="1UV5pbVjWlEWzFO5Yw3B-30">
          <mxGeometry y="10" width="120" height="60" as="geometry" />
        </mxCell>
        <mxCell id="1UV5pbVjWlEWzFO5Yw3B-33" value="" style="group" vertex="1" connectable="0" parent="1">
          <mxGeometry x="354" y="430" width="120" height="80" as="geometry" />
        </mxCell>
        <mxCell id="1UV5pbVjWlEWzFO5Yw3B-34" value="" style="ellipse;whiteSpace=wrap;html=1;" vertex="1" parent="1UV5pbVjWlEWzFO5Yw3B-33">
          <mxGeometry width="120" height="80" as="geometry" />
        </mxCell>
        <mxCell id="1UV5pbVjWlEWzFO5Yw3B-35" value="estoque" style="text;html=1;align=center;verticalAlign=middle;whiteSpace=wrap;rounded=0;" vertex="1" parent="1UV5pbVjWlEWzFO5Yw3B-33">
          <mxGeometry y="10" width="120" height="60" as="geometry" />
        </mxCell>
        <mxCell id="1UV5pbVjWlEWzFO5Yw3B-36" value="" style="group" vertex="1" connectable="0" parent="1">
          <mxGeometry x="354" y="510" width="120" height="80" as="geometry" />
        </mxCell>
        <mxCell id="1UV5pbVjWlEWzFO5Yw3B-37" value="" style="ellipse;whiteSpace=wrap;html=1;" vertex="1" parent="1UV5pbVjWlEWzFO5Yw3B-36">
          <mxGeometry width="120" height="80" as="geometry" />
        </mxCell>
        <mxCell id="1UV5pbVjWlEWzFO5Yw3B-38" value="precoVenda" style="text;html=1;align=center;verticalAlign=middle;whiteSpace=wrap;rounded=0;" vertex="1" parent="1UV5pbVjWlEWzFO5Yw3B-36">
          <mxGeometry y="10" width="120" height="60" as="geometry" />
        </mxCell>
        <mxCell id="1UV5pbVjWlEWzFO5Yw3B-39" value="" style="group" vertex="1" connectable="0" parent="1">
          <mxGeometry x="354" y="590" width="120" height="80" as="geometry" />
        </mxCell>
        <mxCell id="1UV5pbVjWlEWzFO5Yw3B-40" value="" style="ellipse;whiteSpace=wrap;html=1;" vertex="1" parent="1UV5pbVjWlEWzFO5Yw3B-39">
          <mxGeometry width="120" height="80" as="geometry" />
        </mxCell>
        <mxCell id="1UV5pbVjWlEWzFO5Yw3B-41" value="codCompra" style="text;html=1;align=center;verticalAlign=middle;whiteSpace=wrap;rounded=0;" vertex="1" parent="1UV5pbVjWlEWzFO5Yw3B-39">
          <mxGeometry y="10" width="120" height="60" as="geometry" />
        </mxCell>
        <mxCell id="1UV5pbVjWlEWzFO5Yw3B-42" value="" style="group" vertex="1" connectable="0" parent="1">
          <mxGeometry x="10" y="-350" width="120" height="60" as="geometry" />
        </mxCell>
        <mxCell id="1UV5pbVjWlEWzFO5Yw3B-43" value="" style="rounded=0;whiteSpace=wrap;html=1;" vertex="1" parent="1UV5pbVjWlEWzFO5Yw3B-42">
          <mxGeometry width="120" height="60" as="geometry" />
        </mxCell>
        <mxCell id="1UV5pbVjWlEWzFO5Yw3B-44" value="Fornecedor" style="text;html=1;align=center;verticalAlign=middle;whiteSpace=wrap;rounded=0;" vertex="1" parent="1UV5pbVjWlEWzFO5Yw3B-42">
          <mxGeometry width="120" height="60" as="geometry" />
        </mxCell>
        <mxCell id="1UV5pbVjWlEWzFO5Yw3B-45" value="" style="group" vertex="1" connectable="0" parent="1">
          <mxGeometry x="10" y="-290" width="120" height="80" as="geometry" />
        </mxCell>
        <mxCell id="1UV5pbVjWlEWzFO5Yw3B-46" value="" style="ellipse;whiteSpace=wrap;html=1;" vertex="1" parent="1UV5pbVjWlEWzFO5Yw3B-45">
          <mxGeometry width="120" height="80" as="geometry" />
        </mxCell>
        <mxCell id="1UV5pbVjWlEWzFO5Yw3B-47" value="codCNPJ" style="text;html=1;align=center;verticalAlign=middle;whiteSpace=wrap;rounded=0;" vertex="1" parent="1UV5pbVjWlEWzFO5Yw3B-45">
          <mxGeometry y="10" width="120" height="60" as="geometry" />
        </mxCell>
        <mxCell id="1UV5pbVjWlEWzFO5Yw3B-48" value="" style="group" vertex="1" connectable="0" parent="1">
          <mxGeometry x="10" y="-210" width="120" height="80" as="geometry" />
        </mxCell>
        <mxCell id="1UV5pbVjWlEWzFO5Yw3B-49" value="" style="ellipse;whiteSpace=wrap;html=1;" vertex="1" parent="1UV5pbVjWlEWzFO5Yw3B-48">
          <mxGeometry width="120" height="80" as="geometry" />
        </mxCell>
        <mxCell id="1UV5pbVjWlEWzFO5Yw3B-50" value="telefone" style="text;html=1;align=center;verticalAlign=middle;whiteSpace=wrap;rounded=0;" vertex="1" parent="1UV5pbVjWlEWzFO5Yw3B-48">
          <mxGeometry y="10" width="120" height="60" as="geometry" />
        </mxCell>
        <mxCell id="1UV5pbVjWlEWzFO5Yw3B-51" value="" style="group" vertex="1" connectable="0" parent="1">
          <mxGeometry x="10" y="-130" width="120" height="80" as="geometry" />
        </mxCell>
        <mxCell id="1UV5pbVjWlEWzFO5Yw3B-52" value="" style="ellipse;whiteSpace=wrap;html=1;" vertex="1" parent="1UV5pbVjWlEWzFO5Yw3B-51">
          <mxGeometry width="120" height="80" as="geometry" />
        </mxCell>
        <mxCell id="1UV5pbVjWlEWzFO5Yw3B-53" value="cep" style="text;html=1;align=center;verticalAlign=middle;whiteSpace=wrap;rounded=0;" vertex="1" parent="1UV5pbVjWlEWzFO5Yw3B-51">
          <mxGeometry y="10" width="120" height="60" as="geometry" />
        </mxCell>
        <mxCell id="1UV5pbVjWlEWzFO5Yw3B-54" value="" style="endArrow=none;html=1;rounded=0;exitX=1;exitY=0.5;exitDx=0;exitDy=0;entryX=0.5;entryY=0;entryDx=0;entryDy=0;" edge="1" parent="1" source="1UV5pbVjWlEWzFO5Yw3B-44" target="1UV5pbVjWlEWzFO5Yw3B-3">
          <mxGeometry width="50" height="50" relative="1" as="geometry">
            <mxPoint x="380" y="-90" as="sourcePoint" />
            <mxPoint x="440" y="-320" as="targetPoint" />
            <Array as="points">
              <mxPoint x="414" y="-320" />
            </Array>
          </mxGeometry>
        </mxCell>
        <mxCell id="1UV5pbVjWlEWzFO5Yw3B-56" value="" style="group" vertex="1" connectable="0" parent="1">
          <mxGeometry x="200" y="40" width="80" height="80" as="geometry" />
        </mxCell>
        <mxCell id="1UV5pbVjWlEWzFO5Yw3B-2" value="" style="rhombus;whiteSpace=wrap;html=1;" vertex="1" parent="1UV5pbVjWlEWzFO5Yw3B-56">
          <mxGeometry width="80" height="80" as="geometry" />
        </mxCell>
        <mxCell id="1UV5pbVjWlEWzFO5Yw3B-55" value="DetÃªm" style="text;html=1;align=center;verticalAlign=middle;whiteSpace=wrap;rounded=0;" vertex="1" parent="1UV5pbVjWlEWzFO5Yw3B-56">
          <mxGeometry x="10" y="25" width="60" height="30" as="geometry" />
        </mxCell>
        <mxCell id="1UV5pbVjWlEWzFO5Yw3B-57" value="" style="group" vertex="1" connectable="0" parent="1">
          <mxGeometry x="374" y="-360" width="80" height="80" as="geometry" />
        </mxCell>
        <mxCell id="1UV5pbVjWlEWzFO5Yw3B-58" value="" style="rhombus;whiteSpace=wrap;html=1;" vertex="1" parent="1UV5pbVjWlEWzFO5Yw3B-57">
          <mxGeometry width="80" height="80" as="geometry" />
        </mxCell>
        <mxCell id="1UV5pbVjWlEWzFO5Yw3B-59" value="Fornecem" style="text;html=1;align=center;verticalAlign=middle;whiteSpace=wrap;rounded=0;" vertex="1" parent="1UV5pbVjWlEWzFO5Yw3B-57">
          <mxGeometry x="10" y="25" width="60" height="30" as="geometry" />
        </mxCell>
        <mxCell id="1UV5pbVjWlEWzFO5Yw3B-60" value="0,n" style="text;html=1;align=center;verticalAlign=middle;whiteSpace=wrap;rounded=0;" vertex="1" parent="1">
          <mxGeometry x="130" y="50" width="60" height="30" as="geometry" />
        </mxCell>
        <mxCell id="1UV5pbVjWlEWzFO5Yw3B-61" value="1,n" style="text;html=1;align=center;verticalAlign=middle;whiteSpace=wrap;rounded=0;" vertex="1" parent="1">
          <mxGeometry x="414" y="20" width="60" height="30" as="geometry" />
        </mxCell>
        <mxCell id="1UV5pbVjWlEWzFO5Yw3B-62" value="0,n" style="text;html=1;align=center;verticalAlign=middle;whiteSpace=wrap;rounded=0;" vertex="1" parent="1">
          <mxGeometry x="130" y="-350" width="60" height="30" as="geometry" />
        </mxCell>
        <mxCell id="1UV5pbVjWlEWzFO5Yw3B-65" value="1,n" style="text;html=1;align=center;verticalAlign=middle;whiteSpace=wrap;rounded=0;" vertex="1" parent="1">
          <mxGeometry x="294" y="50" width="60" height="30" as="geometry" />
        </mxCell>
        <mxCell id="1UV5pbVjWlEWzFO5Yw3B-68" value="" style="group" vertex="1" connectable="0" parent="1">
          <mxGeometry x="455" y="-360" width="120" height="80" as="geometry" />
        </mxCell>
        <mxCell id="1UV5pbVjWlEWzFO5Yw3B-69" value="" style="ellipse;whiteSpace=wrap;html=1;" vertex="1" parent="1UV5pbVjWlEWzFO5Yw3B-68">
          <mxGeometry width="120" height="80" as="geometry" />
        </mxCell>
        <mxCell id="1UV5pbVjWlEWzFO5Yw3B-70" value="data" style="text;html=1;align=center;verticalAlign=middle;whiteSpace=wrap;rounded=0;" vertex="1" parent="1UV5pbVjWlEWzFO5Yw3B-68">
          <mxGeometry y="10" width="120" height="60" as="geometry" />
        </mxCell>
        <mxCell id="1UV5pbVjWlEWzFO5Yw3B-71" value="" style="group" vertex="1" connectable="0" parent="1">
          <mxGeometry x="456" y="-279" width="120" height="80" as="geometry" />
        </mxCell>
        <mxCell id="1UV5pbVjWlEWzFO5Yw3B-72" value="" style="ellipse;whiteSpace=wrap;html=1;" vertex="1" parent="1UV5pbVjWlEWzFO5Yw3B-71">
          <mxGeometry width="120" height="80" as="geometry" />
        </mxCell>
        <mxCell id="1UV5pbVjWlEWzFO5Yw3B-73" value="custo" style="text;html=1;align=center;verticalAlign=middle;whiteSpace=wrap;rounded=0;" vertex="1" parent="1UV5pbVjWlEWzFO5Yw3B-71">
          <mxGeometry y="10" width="120" height="60" as="geometry" />
        </mxCell>
        <mxCell id="1UV5pbVjWlEWzFO5Yw3B-74" value="" style="group" vertex="1" connectable="0" parent="1">
          <mxGeometry x="456" y="-198" width="120" height="80" as="geometry" />
        </mxCell>
        <mxCell id="1UV5pbVjWlEWzFO5Yw3B-75" value="" style="ellipse;whiteSpace=wrap;html=1;" vertex="1" parent="1UV5pbVjWlEWzFO5Yw3B-74">
          <mxGeometry width="120" height="80" as="geometry" />
        </mxCell>
        <mxCell id="1UV5pbVjWlEWzFO5Yw3B-76" value="codFornecedor" style="text;html=1;align=center;verticalAlign=middle;whiteSpace=wrap;rounded=0;" vertex="1" parent="1UV5pbVjWlEWzFO5Yw3B-74">
          <mxGeometry y="10" width="120" height="60" as="geometry" />
        </mxCell>
        <mxCell id="1UV5pbVjWlEWzFO5Yw3B-81" value="Realiza" style="text;html=1;align=center;verticalAlign=middle;whiteSpace=wrap;rounded=0;" vertex="1" parent="1">
          <mxGeometry x="610" y="65" width="60" height="30" as="geometry" />
        </mxCell>
        <mxCell id="1UV5pbVjWlEWzFO5Yw3B-83" value="" style="group" vertex="1" connectable="0" parent="1">
          <mxGeometry x="810" y="50" width="120" height="60" as="geometry" />
        </mxCell>
        <mxCell id="1UV5pbVjWlEWzFO5Yw3B-84" value="" style="rounded=0;whiteSpace=wrap;html=1;" vertex="1" parent="1UV5pbVjWlEWzFO5Yw3B-83">
          <mxGeometry width="120" height="60" as="geometry" />
        </mxCell>
        <mxCell id="1UV5pbVjWlEWzFO5Yw3B-85" value="itemVenda" style="text;html=1;align=center;verticalAlign=middle;whiteSpace=wrap;rounded=0;" vertex="1" parent="1UV5pbVjWlEWzFO5Yw3B-83">
          <mxGeometry width="120" height="60" as="geometry" />
        </mxCell>
        <mxCell id="1UV5pbVjWlEWzFO5Yw3B-87" value="" style="endArrow=none;html=1;rounded=0;exitX=0;exitY=0.5;exitDx=0;exitDy=0;entryX=1;entryY=0.5;entryDx=0;entryDy=0;" edge="1" parent="1" source="1UV5pbVjWlEWzFO5Yw3B-85" target="1UV5pbVjWlEWzFO5Yw3B-28">
          <mxGeometry width="50" height="50" relative="1" as="geometry">
            <mxPoint x="420" y="260" as="sourcePoint" />
            <mxPoint x="470" y="210" as="targetPoint" />
          </mxGeometry>
        </mxCell>
        <mxCell id="1UV5pbVjWlEWzFO5Yw3B-88" value="" style="group" vertex="1" connectable="0" parent="1">
          <mxGeometry x="810" y="110" width="120" height="80" as="geometry" />
        </mxCell>
        <mxCell id="1UV5pbVjWlEWzFO5Yw3B-89" value="" style="ellipse;whiteSpace=wrap;html=1;" vertex="1" parent="1UV5pbVjWlEWzFO5Yw3B-88">
          <mxGeometry width="120" height="80" as="geometry" />
        </mxCell>
        <mxCell id="1UV5pbVjWlEWzFO5Yw3B-90" value="codItemVenda" style="text;html=1;align=center;verticalAlign=middle;whiteSpace=wrap;rounded=0;" vertex="1" parent="1UV5pbVjWlEWzFO5Yw3B-88">
          <mxGeometry y="10" width="120" height="60" as="geometry" />
        </mxCell>
        <mxCell id="1UV5pbVjWlEWzFO5Yw3B-91" value="" style="group" vertex="1" connectable="0" parent="1">
          <mxGeometry x="810" y="190" width="120" height="80" as="geometry" />
        </mxCell>
        <mxCell id="1UV5pbVjWlEWzFO5Yw3B-92" value="" style="ellipse;whiteSpace=wrap;html=1;" vertex="1" parent="1UV5pbVjWlEWzFO5Yw3B-91">
          <mxGeometry width="120" height="80" as="geometry" />
        </mxCell>
        <mxCell id="1UV5pbVjWlEWzFO5Yw3B-93" value="quantidade" style="text;html=1;align=center;verticalAlign=middle;whiteSpace=wrap;rounded=0;" vertex="1" parent="1UV5pbVjWlEWzFO5Yw3B-91">
          <mxGeometry y="10" width="120" height="60" as="geometry" />
        </mxCell>
        <mxCell id="1UV5pbVjWlEWzFO5Yw3B-94" value="" style="group" vertex="1" connectable="0" parent="1">
          <mxGeometry x="810" y="270" width="120" height="80" as="geometry" />
        </mxCell>
        <mxCell id="1UV5pbVjWlEWzFO5Yw3B-95" value="" style="ellipse;whiteSpace=wrap;html=1;" vertex="1" parent="1UV5pbVjWlEWzFO5Yw3B-94">
          <mxGeometry width="120" height="80" as="geometry" />
        </mxCell>
        <mxCell id="1UV5pbVjWlEWzFO5Yw3B-96" value="valorCompra" style="text;html=1;align=center;verticalAlign=middle;whiteSpace=wrap;rounded=0;" vertex="1" parent="1UV5pbVjWlEWzFO5Yw3B-94">
          <mxGeometry y="10" width="120" height="60" as="geometry" />
        </mxCell>
        <mxCell id="1UV5pbVjWlEWzFO5Yw3B-97" value="" style="group" vertex="1" connectable="0" parent="1">
          <mxGeometry x="810" y="350" width="120" height="80" as="geometry" />
        </mxCell>
        <mxCell id="1UV5pbVjWlEWzFO5Yw3B-98" value="" style="ellipse;whiteSpace=wrap;html=1;" vertex="1" parent="1UV5pbVjWlEWzFO5Yw3B-97">
          <mxGeometry width="120" height="80" as="geometry" />
        </mxCell>
        <mxCell id="1UV5pbVjWlEWzFO5Yw3B-99" value="data" style="text;html=1;align=center;verticalAlign=middle;whiteSpace=wrap;rounded=0;" vertex="1" parent="1UV5pbVjWlEWzFO5Yw3B-97">
          <mxGeometry y="10" width="120" height="60" as="geometry" />
        </mxCell>
        <mxCell id="1UV5pbVjWlEWzFO5Yw3B-100" value="" style="group" vertex="1" connectable="0" parent="1">
          <mxGeometry x="810" y="430" width="120" height="80" as="geometry" />
        </mxCell>
        <mxCell id="1UV5pbVjWlEWzFO5Yw3B-101" value="" style="ellipse;whiteSpace=wrap;html=1;" vertex="1" parent="1UV5pbVjWlEWzFO5Yw3B-100">
          <mxGeometry width="120" height="80" as="geometry" />
        </mxCell>
        <mxCell id="1UV5pbVjWlEWzFO5Yw3B-102" value="codProduto" style="text;html=1;align=center;verticalAlign=middle;whiteSpace=wrap;rounded=0;" vertex="1" parent="1UV5pbVjWlEWzFO5Yw3B-100">
          <mxGeometry y="10" width="120" height="60" as="geometry" />
        </mxCell>
        <mxCell id="1UV5pbVjWlEWzFO5Yw3B-103" value="1,n" style="text;html=1;align=center;verticalAlign=middle;whiteSpace=wrap;rounded=0;" vertex="1" parent="1">
          <mxGeometry x="750" y="50" width="60" height="30" as="geometry" />
        </mxCell>
        <mxCell id="1UV5pbVjWlEWzFO5Yw3B-104" value="0,n" style="text;html=1;align=center;verticalAlign=middle;whiteSpace=wrap;rounded=0;" vertex="1" parent="1">
          <mxGeometry x="474" y="50" width="60" height="30" as="geometry" />
        </mxCell>
      </root>
    </mxGraphModel>
  </diagram>
</mxfile>
